<svg xmlns="http://www.w3.org/2000/svg" xmlns:xlink="http://www.w3.org/1999/xlink" viewBox="0 0 1367.39 319.97"><defs><linearGradient id="a" x1="102.08" y1="319.77" x2="102.08" y2="3.3" gradientUnits="userSpaceOnUse"><stop offset="0" stop-color="#007dc5"/><stop offset="0.83" stop-color="#1752a3"/><stop offset="1" stop-color="#1752a3"/></linearGradient><linearGradient id="b" x1="313.99" y1="319.76" x2="313.99" y2="3.29" xlink:href="#a"/><linearGradient id="c" x1="216.53" y1="190.6" x2="216.53" y2="133.48" xlink:href="#a"/></defs><title>5资源 1</title><polygon points="98.79 162.2 157.64 60.29 204.16 60.29 204.16 3.31 204.16 3.3 125.13 3.3 63.31 110.36 63.31 3.3 0 3.3 0 3.31 0 18.07 0 305.01 0 319.76 7.89 319.76 63.31 319.76 63.31 212.71 125.13 319.76 204.16 319.76 204.16 264.11 157.64 264.11 98.79 162.2" style="fill:url(#a)"/><polygon points="307.84 3.29 228.79 3.29 228.79 3.3 228.79 60.29 275.33 60.29 317.58 133.5 290.32 133.5 290.32 133.52 290.32 190.5 317.82 190.5 275.33 264.11 228.79 264.11 228.79 319.76 307.84 319.76 399.19 161.52 307.84 3.29" style="fill:url(#b)"/><polygon points="200.04 190.6 183.56 162.04 200.04 133.48 233.01 133.48 249.5 162.04 233.01 190.6 200.04 190.6" style="fill:url(#c)"/><polygon points="605.25 55.54 561.32 43.75 561.32 65.48 605.25 77.27 605.25 55.54" style="fill:#888"/><polygon points="605.25 21.51 561.32 9.73 561.32 31.47 605.25 43.24 605.25 21.51" style="fill:#888"/><polygon points="641.86 85.94 637.15 85.94 637.15 4.64 612.08 4.64 612.08 85.94 559.38 85.94 559.38 101.89 612.08 101.89 612.08 133.77 637.15 133.77 637.15 101.89 641.86 101.89 641.86 85.94" style="fill:#888"/><polygon points="474.26 20.59 500.91 20.59 500.91 37.89 474.26 37.89 474.26 53.84 500.91 53.84 500.91 133.77 525.08 133.77 525.08 53.84 551.74 53.84 551.74 37.89 525.08 37.89 525.08 20.59 546.8 20.59 559.61 4.56 474.26 4.64 474.26 20.59" style="fill:#888"/><rect x="473.94" y="61.17" width="20.88" height="72.61" style="fill:#888"/><rect x="530.88" y="61.17" width="20.87" height="72.6" style="fill:#888"/><polygon points="1226.63 20.49 1343.21 20.49 1343.21 31.68 1367.39 31.68 1367.39 4.47 1297.03 4.47 1297.03 0.01 1272.83 0.01 1272.83 4.47 1202.45 4.47 1202.45 31.68 1226.63 31.68 1226.63 20.49" style="fill:#888"/><rect x="835.75" y="37.67" width="75.44" height="13.84" style="fill:#888"/><rect x="835.75" y="56.29" width="75.44" height="13.82" style="fill:#888"/><polygon points="857.26 20.53 977.1 20.53 977.1 31.66 1001.27 31.66 1001.27 4.59 929.26 4.59 929.26 0 905.08 0 905.08 4.59 833.07 4.59 833.07 31.66 857.26 31.66 857.26 20.53" style="fill:#888"/><polygon points="998.6 91.75 998.6 74.88 949.09 74.88 949.09 31.66 919.77 31.66 919.77 74.88 835.75 74.88 835.75 91.75 903.06 91.75 882.68 117.65 835.75 117.65 835.75 133.55 903.76 133.55 936.07 91.75 998.6 91.75" style="fill:#888"/><polygon points="941.55 100.37 968.7 133.55 998.6 133.55 971.44 100.37 941.55 100.37" style="fill:#888"/><rect x="1090.67" y="54.17" width="95.26" height="14.65" style="fill:#888"/><polygon points="1121.67 20.34 1155.09 20.37 1161.82 49.44 1186.01 49.44 1175.27 4.43 1101.22 4.43 1090.67 49.44 1114.84 49.44 1121.67 20.34" style="fill:#888"/><polygon points="1060.78 62.88 1084.95 62.88 1084.95 4.43 1017.72 4.43 1017.72 20.36 1060.78 20.36 1060.78 62.88" style="fill:#888"/><path d="M816.63,85.33V4.45H659.16V85.33Zm-133.28-67h109.1V70.89H683.35Z" style="fill:#888"/><polygon points="691.43 91.19 691.43 133.55 785.08 133.55 785.08 117.61 715.6 117.61 715.6 91.19 691.43 91.19" style="fill:#888"/><rect x="659.16" y="91.19" width="24.19" height="42.36" style="fill:#888"/><polygon points="1041.91 68.82 1041.91 31.66 1017.72 31.66 1017.72 84.77 1060.78 84.77 1060.78 117.58 1017.75 117.68 1017.72 117.58 1017.72 133.53 1084.95 133.57 1084.95 133.53 1084.95 68.82 1041.91 68.82" style="fill:#666"/><rect x="1017.71" y="92.89" width="37.45" height="15.85" style="fill:#666"/><polygon points="733.15 91.19 733.15 108.53 792.45 108.53 792.45 133.55 816.63 133.55 816.63 91.19 733.15 91.19" style="fill:#666"/><path d="M612.28,258.38v13.17H560.35v11h42.49v13.18H560.35v11h51.93v13.17h-66.1V258.38Z" style="fill:#888"/><path d="M742.19,306.75q9.45,0,9.45-2.2V258.43h14.15v46.12q0,15.39-23.6,15.37H723.32q-23.61,0-23.61-15.37V258.43h14.16v46.12q0,2.2,9.45,2.2Z" style="fill:#888"/><path d="M871,258.42v61.5H856.83v-61.5Z" style="fill:#888"/><path d="M921.51,271.6v48.32H907.35V271.6h-26V258.42h66.1V271.6Z" style="fill:#888"/><path d="M987.75,291.54l-29.89-33.12h18.51l18.46,20.47,18.45-20.47h18.51l-29.89,33.12v28.38H987.75Z" style="fill:#888"/><path d="M1073.75,258.42h14.16v48.32h39.45v13.18h-53.61Z" style="fill:#888"/><path d="M1185.85,300.15,1174.19,278l-22.06,41.91h-15.71l32.33-61.5h10.86l32.35,61.5h-15.73l-3.44-6.59h-30.87l6.93-13.18Z" style="fill:#888"/><polygon points="765.92 235.43 765.82 174.12 749.27 174.15 749.27 214.82 716.27 174.15 699.55 174.07 699.55 235.36 716.27 235.41 716.27 194.73 749.27 235.41 765.92 235.43" style="fill:#888"/><polygon points="612.42 187.11 612.42 173.88 546.07 173.88 546.07 235.62 612.42 235.62 612.42 222.41 561.79 222.41 561.79 211.38 602.94 211.38 602.94 198.14 561.79 198.14 561.79 187.11 612.42 187.11" style="fill:#888"/><polygon points="689.17 187.11 689.17 173.88 622.81 173.88 622.81 235.62 689.17 235.62 689.17 222.41 638.53 222.41 638.53 211.38 679.68 211.38 679.68 198.14 638.53 198.14 638.53 187.11 689.17 187.11" style="fill:#888"/><path d="M689,306.45l-48.08.09a3.33,3.33,0,0,1-3.34-3.33V274.87a3.33,3.33,0,0,1,3.34-3.32h48V258.38H639.64A16.65,16.65,0,0,0,623,275v28.2a16.67,16.67,0,0,0,16.67,16.65H689V306.54h0S689,306.47,689,306.45Z" style="fill:#666"/><path d="M824.28,294.52h0a18,18,0,0,0,0-36.09H776.89v61.49H791V271.31H825a6.43,6.43,0,1,1,0,12.86H796.33l32.29,35.75h18.27Z" style="fill:#888988"/><path d="M1288,276.74a18.37,18.37,0,0,0-18.36-18.36H1221V320h48.59a18.33,18.33,0,0,0,13.47-30.79A18.3,18.3,0,0,0,1288,276.74Zm-52.88-5.3h32.06a5.91,5.91,0,0,1,0,11.81h-32.06Zm32.06,35.48h-32.06V295.1h32.06a5.91,5.91,0,0,1,0,11.82Z" style="fill:#888"/><rect x="473.45" y="174.07" width="14.13" height="61.37" style="fill:#666"/><polygon points="535.67 174.07 517.26 174.07 489.79 204.75 489.79 204.75 517.26 235.44 535.67 235.44 508.03 204.75 535.67 174.07" style="fill:#666"/><path d="M535.45,295a18.28,18.28,0,0,0-17-11.72H493.59a5.86,5.86,0,1,1,0-11.72h41.86V258.42H491.08a18.28,18.28,0,0,0,0,36.56h25.77a5.86,5.86,0,0,1,0,11.71H474.64v13.14h43.77a18.23,18.23,0,0,0,17-24.84Z" style="fill:#888988"/><polygon points="1366.06 37.67 1268.73 37.67 1255.64 53.7 1366.06 53.7 1366.06 37.67" style="fill:#666"/><polygon points="1366.06 80.5 1348.17 58.41 1324 58.41 1328.9 64.48 1240.89 64.48 1262.55 37.67 1203.71 37.67 1203.71 53.7 1225.42 53.7 1203.78 80.5 1366.06 80.5" style="fill:#666"/><polygon points="738.03 42.78 742.11 42.78 756.85 66.12 784.57 66.12 769.82 42.78 785.08 42.78 785.08 26.92 785.08 26.84 750.89 26.92 754.11 22.96 726.39 22.96 723.25 26.84 690.7 26.84 690.7 42.78 710.31 42.78 691.36 66.12 719.09 66.12 738.03 42.78" style="fill:#666"/><polygon points="1100.72 112.77 1121.6 112.77 1112.13 74.69 1091.24 74.69 1100.72 112.77" style="fill:#666"/><polygon points="1185.55 74.9 1164.69 74.9 1154.08 117.58 1090.67 117.58 1090.67 133.53 1185.93 133.53 1185.93 117.58 1174.97 117.58 1185.55 74.9" style="fill:#666"/><polygon points="1128.37 112.77 1149.23 112.77 1139.78 74.69 1118.89 74.69 1128.37 112.77" style="fill:#666"/><polygon points="1366.06 128.74 1366.06 117.53 1297.03 117.53 1297.03 107.78 1366.06 107.78 1366.06 91.75 1297.03 91.75 1297.03 86.37 1272.83 86.37 1272.83 91.75 1203.79 91.75 1203.79 107.78 1272.83 107.78 1272.83 117.53 1203.79 117.53 1203.79 133.57 1272.83 133.57 1297.03 133.57 1360.73 133.57 1366.06 133.57 1366.09 128.71 1366.06 128.74" style="fill:#666"/></svg>