<svg width="128" height="25" viewBox="0 0 128 25" fill="none" xmlns="http://www.w3.org/2000/svg">
<path d="M3.108 19C2.98667 19 2.874 18.9913 2.77 18.974C2.28467 18.9567 1.86867 18.7747 1.522 18.428C1.17533 18.064 1.002 17.6393 1.002 17.154C1.01933 16.374 1.01067 13.878 0.976 9.666C0.941333 5.47133 0.958667 2.97533 1.028 2.178C1.04533 1.71 1.236 1.30267 1.6 0.956C1.98133 0.609332 2.42333 0.444665 2.926 0.461998C3.082 0.409999 3.238 0.383999 3.394 0.383999C4.07 0.314666 4.57267 0.271333 4.902 0.254C5.11 0.236665 5.422 0.219332 5.838 0.201999C6.254 0.184666 6.68733 0.184666 7.138 0.201999C7.606 0.201999 8.01333 0.227999 8.36 0.279999C8.86267 0.366666 9.44333 0.479333 10.102 0.618C10.7433 0.774 11.35 1.008 11.922 1.32C12.494 1.632 13.014 2.00467 13.482 2.438C14.3833 3.25267 15.0593 4.232 15.51 5.376C15.978 6.52 16.2033 7.75933 16.186 9.094C16.1687 10.446 15.978 11.6853 15.614 12.812C15.2327 13.956 14.652 14.996 13.872 15.932C13.092 16.8507 12.182 17.57 11.142 18.09C10.05 18.61 8.61133 18.9133 6.826 19C6.462 19.0173 5.812 19.0173 4.876 19C3.94 19 3.35067 19 3.108 19ZM6.67 15.438C7.95267 15.3513 8.906 15.1607 9.53 14.866C10.57 14.3633 11.3673 13.5227 11.922 12.344C12.286 11.564 12.494 10.706 12.546 9.77C12.598 8.834 12.494 7.95 12.234 7.118C11.9913 6.26867 11.5927 5.59267 11.038 5.09C10.362 4.48333 9.504 4.102 8.464 3.946C7.44133 3.79 6.15867 3.77267 4.616 3.894C4.59867 5.54067 4.59 6.806 4.59 7.69C4.59 8.47 4.59 9.31933 4.59 10.238C4.60733 11.1567 4.616 12.0667 4.616 12.968C4.63333 13.8693 4.642 14.684 4.642 15.412C5.49133 15.4467 6.16733 15.4553 6.67 15.438ZM24.9815 19.234C23.5948 19.234 22.3815 18.9393 21.3415 18.35C20.3015 17.7607 19.5042 16.972 18.9495 15.984C18.4122 14.996 18.1435 13.904 18.1435 12.708C18.1435 11.2 18.4208 9.89133 18.9755 8.782C19.5302 7.69 20.3275 6.82333 21.3675 6.182C22.4075 5.54067 23.5862 5.22 24.9035 5.22C26.2555 5.22 27.4168 5.49733 28.3875 6.052C29.3408 6.60667 30.0602 7.36067 30.5455 8.314C31.0308 9.25 31.2735 10.2987 31.2735 11.46C31.2735 12.0493 31.0828 12.5087 30.7015 12.838C30.3202 13.1673 29.8088 13.358 29.1675 13.41C27.8675 13.5313 26.7148 13.592 25.7095 13.592C24.7562 13.592 23.7335 13.566 22.6415 13.514L21.7315 13.488C21.8355 14.3373 22.1648 15.0047 22.7195 15.49C23.2915 15.958 24.1495 16.1747 25.2935 16.14C25.8135 16.1227 26.2295 16.062 26.5415 15.958C26.8535 15.8367 27.1308 15.6633 27.3735 15.438C27.6335 15.178 27.8762 14.9613 28.1015 14.788C28.3268 14.5973 28.6388 14.502 29.0375 14.502C29.4882 14.502 29.8608 14.658 30.1555 14.97C30.4675 15.2647 30.6235 15.6113 30.6235 16.01C30.6235 16.5647 30.3462 17.0933 29.7915 17.596C29.2368 18.0987 28.5175 18.4973 27.6335 18.792C26.7668 19.0867 25.8828 19.234 24.9815 19.234ZM21.7835 10.836C22.8062 10.9747 23.9415 11.0267 25.1895 10.992C26.3855 10.9747 27.2608 10.8967 27.8155 10.758C27.7808 10.0127 27.5555 9.41467 27.1395 8.964C26.7408 8.51333 26.0128 8.29667 24.9555 8.314C24.0715 8.33133 23.3522 8.53067 22.7975 8.912C22.2428 9.29333 21.9048 9.93467 21.7835 10.836ZM39.9366 19.234C38.5499 19.234 37.3366 18.9393 36.2966 18.35C35.2566 17.7607 34.4593 16.972 33.9046 15.984C33.3673 14.996 33.0986 13.904 33.0986 12.708C33.0986 11.2 33.3759 9.89133 33.9306 8.782C34.4853 7.69 35.2826 6.82333 36.3226 6.182C37.3626 5.54067 38.5413 5.22 39.8586 5.22C41.2106 5.22 42.3719 5.49733 43.3426 6.052C44.2959 6.60667 45.0153 7.36067 45.5006 8.314C45.9859 9.25 46.2286 10.2987 46.2286 11.46C46.2286 12.0493 46.0379 12.5087 45.6566 12.838C45.2753 13.1673 44.7639 13.358 44.1226 13.41C42.8226 13.5313 41.6699 13.592 40.6646 13.592C39.7113 13.592 38.6886 13.566 37.5966 13.514L36.6866 13.488C36.7906 14.3373 37.1199 15.0047 37.6746 15.49C38.2466 15.958 39.1046 16.1747 40.2486 16.14C40.7686 16.1227 41.1846 16.062 41.4966 15.958C41.8086 15.8367 42.0859 15.6633 42.3286 15.438C42.5886 15.178 42.8313 14.9613 43.0566 14.788C43.2819 14.5973 43.5939 14.502 43.9926 14.502C44.4433 14.502 44.8159 14.658 45.1106 14.97C45.4226 15.2647 45.5786 15.6113 45.5786 16.01C45.5786 16.5647 45.3013 17.0933 44.7466 17.596C44.1919 18.0987 43.4726 18.4973 42.5886 18.792C41.7219 19.0867 40.8379 19.234 39.9366 19.234ZM36.7386 10.836C37.7613 10.9747 38.8966 11.0267 40.1446 10.992C41.3406 10.9747 42.2159 10.8967 42.7706 10.758C42.7359 10.0127 42.5106 9.41467 42.0946 8.964C41.6959 8.51333 40.9679 8.29667 39.9106 8.314C39.0266 8.33133 38.3073 8.53067 37.7526 8.912C37.1979 9.29333 36.8599 9.93467 36.7386 10.836ZM52.0837 22.432C52.0663 23.0213 51.867 23.4633 51.4857 23.758C51.1217 24.0527 50.697 24.1913 50.2117 24.174C49.7437 24.174 49.3277 24.018 48.9637 23.706C48.617 23.4113 48.4437 22.9693 48.4437 22.38C48.4957 19.3813 48.5217 14.2853 48.5217 7.092C48.5217 6.58933 48.695 6.16467 49.0417 5.818C49.4057 5.454 49.839 5.272 50.3417 5.272C51.0003 5.272 51.5117 5.558 51.8757 6.13C53.7477 5.09 55.533 4.95133 57.2317 5.714C58.7223 6.40733 59.8143 7.638 60.5077 9.406C60.8023 10.1687 60.9757 10.9747 61.0277 11.824C61.0797 12.6733 60.993 13.514 60.7677 14.346C60.5597 15.1607 60.187 15.9147 59.6497 16.608C59.1297 17.284 58.4363 17.8387 57.5697 18.272C56.079 19.0173 54.7443 19.2167 53.5657 18.87C53.0803 18.7313 52.6037 18.506 52.1357 18.194C52.1183 19.5113 52.101 20.924 52.0837 22.432ZM54.6057 15.516C54.8657 15.6027 55.3163 15.49 55.9577 15.178C56.6337 14.8313 57.0843 14.242 57.3097 13.41C57.535 12.5607 57.4917 11.6593 57.1797 10.706C56.7983 9.85667 56.313 9.29333 55.7237 9.016C55.117 8.73867 54.5277 8.71267 53.9557 8.938C53.3837 9.16333 52.7857 9.75267 52.1617 10.706V13.696C52.5083 14.3373 52.8983 14.8053 53.3317 15.1C53.765 15.3773 54.1897 15.516 54.6057 15.516ZM68.1996 17.206C68.1823 17.7953 67.9829 18.2373 67.6016 18.532C67.2376 18.8267 66.8129 18.974 66.3276 18.974C65.8596 18.9567 65.4436 18.8007 65.0796 18.506C64.7329 18.194 64.5596 17.7433 64.5596 17.154C64.5769 16.6167 64.5683 14.164 64.5336 9.796C64.5163 7.456 64.5509 5.49733 64.6376 3.92C63.2509 3.92 62.0809 3.92867 61.1276 3.946C60.5383 3.946 60.0876 3.77267 59.7756 3.426C59.4809 3.062 59.3249 2.646 59.3076 2.178C59.3076 1.69267 59.4549 1.268 59.7496 0.903999C60.0443 0.522665 60.4863 0.323332 61.0756 0.305999C61.5089 0.305999 62.0809 0.305999 62.7916 0.305999C63.5196 0.288666 64.3083 0.279999 65.1576 0.279999C66.0243 0.262666 66.8823 0.254 67.7316 0.254C68.5983 0.254 69.3869 0.254 70.0976 0.254C70.8256 0.254 71.4063 0.254 71.8396 0.254C72.3249 0.254 72.7063 0.375333 72.9836 0.618C73.2783 0.860666 73.4776 1.164 73.5816 1.528C73.6856 1.892 73.6943 2.256 73.6076 2.62C73.5209 2.984 73.3389 3.28733 73.0616 3.53C72.7843 3.77267 72.4116 3.894 71.9436 3.894C70.8516 3.894 69.6296 3.90267 68.2776 3.92C68.1909 5.428 68.1563 7.378 68.1736 9.77C68.2083 14.19 68.2169 16.6687 68.1996 17.206ZM78.9112 19.234C77.5245 19.234 76.3112 18.9393 75.2712 18.35C74.2312 17.7607 73.4339 16.972 72.8792 15.984C72.3419 14.996 72.0732 13.904 72.0732 12.708C72.0732 11.2 72.3505 9.89133 72.9052 8.782C73.4599 7.69 74.2572 6.82333 75.2972 6.182C76.3372 5.54067 77.5159 5.22 78.8332 5.22C80.1852 5.22 81.3465 5.49733 82.3172 6.052C83.2705 6.60667 83.9899 7.36067 84.4752 8.314C84.9605 9.25 85.2032 10.2987 85.2032 11.46C85.2032 12.0493 85.0125 12.5087 84.6312 12.838C84.2499 13.1673 83.7385 13.358 83.0972 13.41C81.7972 13.5313 80.6445 13.592 79.6392 13.592C78.6859 13.592 77.6632 13.566 76.5712 13.514L75.6612 13.488C75.7652 14.3373 76.0945 15.0047 76.6492 15.49C77.2212 15.958 78.0792 16.1747 79.2232 16.14C79.7432 16.1227 80.1592 16.062 80.4712 15.958C80.7832 15.8367 81.0605 15.6633 81.3032 15.438C81.5632 15.178 81.8059 14.9613 82.0312 14.788C82.2565 14.5973 82.5685 14.502 82.9672 14.502C83.4179 14.502 83.7905 14.658 84.0852 14.97C84.3972 15.2647 84.5532 15.6113 84.5532 16.01C84.5532 16.5647 84.2759 17.0933 83.7212 17.596C83.1665 18.0987 82.4472 18.4973 81.5632 18.792C80.6965 19.0867 79.8125 19.234 78.9112 19.234ZM75.7132 10.836C76.7359 10.9747 77.8712 11.0267 79.1192 10.992C80.3152 10.9747 81.1905 10.8967 81.7452 10.758C81.7105 10.0127 81.4852 9.41467 81.0692 8.964C80.6705 8.51333 79.9425 8.29667 78.8852 8.314C78.0012 8.33133 77.2819 8.53067 76.7272 8.912C76.1725 9.29333 75.8345 9.93467 75.7132 10.836ZM92.4623 19.026C91.8383 19.026 91.1623 18.9047 90.4343 18.662C89.5329 18.3153 88.7789 17.804 88.1723 17.128C87.5829 16.4347 87.2189 15.6807 87.0803 14.866C86.9763 14.3287 86.9243 13.8087 86.9243 13.306C86.9243 12.1447 87.1496 11.0527 87.6003 10.03C88.2243 8.59133 89.0996 7.43 90.2263 6.546C91.3529 5.662 92.6356 5.22 94.0743 5.22C94.5943 5.22 95.1576 5.28933 95.7643 5.428C96.1629 5.532 96.5529 5.714 96.9343 5.974H97.0643L97.3243 5.948C97.7576 5.948 98.1389 6.104 98.4683 6.416C98.8149 6.728 99.0143 7.10933 99.0663 7.56L99.2483 9.354C99.2829 10.1167 99.3263 11.4167 99.3783 13.254L99.4303 14.658C99.4649 15.5247 99.4909 16.088 99.5083 16.348C99.5083 16.6253 99.4909 16.8853 99.4563 17.128C99.3869 17.6307 99.1963 18.064 98.8843 18.428C98.5896 18.7747 98.1996 18.9567 97.7143 18.974C97.3156 18.9913 96.9516 18.896 96.6223 18.688C96.3103 18.4627 96.0849 18.064 95.9463 17.492C95.5476 17.9773 95.0623 18.3327 94.4903 18.558C93.8143 18.8353 93.1383 18.9913 92.4623 19.026ZM92.4883 15.36C93.0083 15.36 93.5456 15.1953 94.1003 14.866C94.2389 14.7793 94.3949 14.6493 94.5683 14.476L94.9583 14.112L95.4003 13.488C95.5043 13.3667 95.6256 13.28 95.7643 13.228C95.7643 11.772 95.7209 10.5413 95.6343 9.536L95.3743 9.354L95.0103 9.068L94.7763 8.912C94.4989 8.84267 94.2823 8.808 94.1263 8.808C93.5023 8.808 92.8956 9.05067 92.3063 9.536C91.7343 10.0213 91.2749 10.6973 90.9283 11.564C90.6509 12.24 90.5123 12.8467 90.5123 13.384C90.5123 14.32 90.9283 14.9353 91.7603 15.23C92.0203 15.3167 92.2629 15.36 92.4883 15.36ZM113.762 17.362C113.745 17.9167 113.554 18.3327 113.19 18.61C112.843 18.8873 112.436 19.0173 111.968 19C111.517 18.9827 111.127 18.8267 110.798 18.532C110.469 18.2373 110.313 17.8127 110.33 17.258C110.347 16.9633 110.373 16.452 110.408 15.724L110.46 14.216C110.477 13.7827 110.477 13.2453 110.46 12.604C110.443 11.9453 110.408 11.408 110.356 10.992C110.339 10.9227 110.33 10.8533 110.33 10.784C110.278 10.42 110.209 10.0993 110.122 9.822C110.018 9.49267 109.81 9.224 109.498 9.016C109.186 8.79067 108.796 8.66067 108.328 8.626C107.843 8.574 107.392 8.63467 106.976 8.808C106.577 8.964 106.283 9.18933 106.092 9.484C106.075 9.536 106.049 9.63133 106.014 9.77V9.874C106.049 13.0287 106.066 15.464 106.066 17.18C106.066 17.6653 105.945 18.0553 105.702 18.35C105.459 18.6273 105.156 18.818 104.792 18.922C104.428 19.0087 104.064 19.0087 103.7 18.922C103.336 18.818 103.033 18.6273 102.79 18.35C102.547 18.0553 102.426 17.6653 102.426 17.18C102.426 15.5333 102.4 12.1707 102.348 7.092C102.348 6.58933 102.521 6.16467 102.868 5.818C103.215 5.454 103.639 5.26333 104.142 5.246C104.627 5.246 105.052 5.41067 105.416 5.74C106.421 5.272 107.487 5.09 108.614 5.194C109.949 5.31533 111.075 5.792 111.994 6.624C112.618 6.08667 113.329 5.70533 114.126 5.48C114.923 5.25467 115.712 5.17667 116.492 5.246C117.567 5.35 118.546 5.70533 119.43 6.312C120.314 6.91867 120.929 7.75933 121.276 8.834C121.397 9.23267 121.493 9.72667 121.562 10.316C121.649 10.9053 121.709 11.486 121.744 12.058C121.779 12.63 121.796 13.098 121.796 13.462C121.779 14.2247 121.744 14.97 121.692 15.698C121.657 16.426 121.64 16.972 121.64 17.336C121.623 17.8907 121.432 18.3067 121.068 18.584C120.721 18.8613 120.314 18.9913 119.846 18.974C119.395 18.9567 119.005 18.8007 118.676 18.506C118.347 18.2113 118.191 17.7867 118.208 17.232C118.208 16.7813 118.225 16.2093 118.26 15.516C118.312 14.8053 118.347 14.1207 118.364 13.462C118.364 13.1673 118.347 12.7947 118.312 12.344C118.295 11.876 118.26 11.4167 118.208 10.966C118.156 10.5153 118.087 10.1513 118 9.874C117.896 9.54467 117.688 9.276 117.376 9.068C117.064 8.84267 116.674 8.71267 116.206 8.678C115.721 8.626 115.27 8.68667 114.854 8.86C114.455 9.016 114.161 9.24133 113.97 9.536C113.953 9.588 113.927 9.68333 113.892 9.822C113.892 9.83933 113.892 9.86533 113.892 9.9C113.892 9.91733 113.892 9.94333 113.892 9.978L113.84 10.186C113.84 10.2033 113.84 10.2293 113.84 10.264C113.84 10.2813 113.84 10.3073 113.84 10.342C113.823 10.498 113.805 10.6367 113.788 10.758C113.875 11.6073 113.909 12.3787 113.892 13.072C113.875 13.748 113.849 14.4327 113.814 15.126C113.779 15.802 113.762 16.5473 113.762 17.362ZM127.322 15.776C127.686 16.14 127.885 16.53 127.92 16.946C127.955 17.3447 127.868 17.7173 127.66 18.064C127.469 18.4107 127.201 18.688 126.854 18.896C126.507 19.0867 126.126 19.1647 125.71 19.13C125.311 19.0953 124.93 18.896 124.566 18.532C124.202 18.168 124.003 17.7867 123.968 17.388C123.933 16.972 124.011 16.5907 124.202 16.244C124.41 15.8973 124.687 15.6287 125.034 15.438C125.381 15.23 125.753 15.1433 126.152 15.178C126.568 15.2127 126.958 15.412 127.322 15.776Z" fill="white"/>
</svg>
