<svg width="118" height="118" viewBox="0 0 118 118" fill="none" xmlns="http://www.w3.org/2000/svg">
<g clip-path="url(#clip0_0_1)">
<path d="M113.5 59C113.5 28.9005 89.0995 4.5 59 4.5C28.9005 4.5 4.5 28.9005 4.5 59C4.5 89.0995 28.9005 113.5 59 113.5C89.0995 113.5 113.5 89.0995 113.5 59Z" fill="#10002A" stroke="#FF0059" stroke-width="9"/>
<path d="M33 47.5094V73.0506C33 73.3456 33.2496 73.5778 33.544 73.5589C39.606 73.1709 46.0902 71.0423 50.6686 66.842V61.8084H43.9981C43.1752 61.8084 42.4675 61.1755 42.4296 60.3535C42.3891 59.4765 43.0881 58.754 43.9551 58.754H50.6687V53.7193C46.1159 49.5411 39.6317 47.3879 33.5439 47.0011C33.2495 46.9824 33 47.2145 33 47.5094ZM67.3314 53.7203V58.754H74.0014C74.8234 58.754 75.531 59.3853 75.5703 60.2063C75.6123 61.0833 74.9127 61.8084 74.045 61.8084H67.3314V66.843C71.8842 71.0212 78.3685 73.1744 84.4562 73.5613C84.7505 73.58 85 73.3478 85 73.053V47.5117C85 47.2168 84.7504 46.9846 84.456 47.0034C78.3782 47.3923 71.902 49.5253 67.3314 53.7203ZM53.723 54.3872V66.1751H64.277V54.3872H53.723Z" fill="white"/>
</g>
<defs>
<clipPath id="clip0_0_1">
<rect width="118" height="118" fill="white"/>
</clipPath>
</defs>
</svg>
