<svg width="171" height="48" viewBox="0 0 171 48" fill="none" xmlns="http://www.w3.org/2000/svg"><g clip-path="url(#clip0_3777_34177)"><path d="M53.944 28.141l-.016.052.017-.052z" fill="url(#paint0_linear_3777_34177)"/><path d="M26.187 13.363c-.31-.065-.596-.293-.729-.695-.116-.355-.081-.74-.015-1.108.34-1.894.646-3.793 1.088-5.67.358-1.52.861-3.03 1.784-4.307.664-.92 1.627-1.708 2.741-1.987C32.96-.881 33.75.98 33.09 2.558c-.558 1.332-1.906 2.01-2.898 2.967-1.812 1.75-2.378 4.705-2.902 7.066-.133.6-.643.867-1.102.772z" fill="url(#paint1_linear_3777_34177)"/><path d="M22.679 10.948c-.664-.025-1.312-.119-1.924-.469-.576-.33-1.337-.919-2.053-.67-.784.274-1.088 1.366-1.697 1.9-.857.75-1.899 1.16-2.864 1.736a19.829 19.829 0 00-2.395 1.66 18.553 18.553 0 00-3.855 4.313 18.443 18.443 0 00-2.908 10.669c.407 10.452 9.454 18.529 20 17.631 9.417-.801 16.775-8.752 16.84-18.196a18.482 18.482 0 00-2.35-9.163 18.56 18.56 0 00-6.333-6.624 18.428 18.428 0 00-8.943-2.766c-.508-.022-1.017-.002-1.518-.02z" fill="url(#paint2_linear_3777_34177)"/><path d="M10.01 4.06c.17-.505.436-.964.832-1.288a1.808 1.808 0 012.531.244c1.505 1.802.365 4.563.305 6.638-.05 1.748.536 3.555 1.24 5.1.136.299.364.604.406.946.071.573-.177 1.045-.62 1.264-.751.373-1.231-.417-1.54-.979-.716-1.298-1.327-2.694-1.904-4.06-.595-1.405-1.097-2.86-1.344-4.37a12.936 12.936 0 01-.159-1.564c-.022-.602.04-1.303.253-1.931z" fill="url(#paint3_linear_3777_34177)"/><path d="M20.9 28.06l-.093.028.092-.028z" fill="url(#paint4_linear_3777_34177)"/><path d="M28.33 24.415c-.595-1.322-1.494-2.817-2.297-3.844A1.559 1.559 0 0024.488 20c-8.14 1.69-15.278 5.26-19.494 8.957-6.386 5.6-5.837 10.405-2.85 13.03-1.031-1.941.533-4.627 3.523-6.913 6.702-5.125 18.304-8.288 21.836-9.033a1.174 1.174 0 00.826-1.625z" fill="url(#paint5_linear_3777_34177)"/><path d="M2.143 41.985l.012.011c2.535 2.238 6.91 3.426 12.189 3.416a18.519 18.519 0 01-4.607-3.681c-3.888.102-5.893-.764-7.655-2.37-.347.946-.352 1.845.061 2.624z" fill="url(#paint6_linear_3777_34177)"/><path d="M41.567 32.436a18.254 18.254 0 01-1.833 5.424c4.081-2.702 6.909-5.827 7.813-8.765.007-1.115-.355-1.924-.975-2.52-.8 3.11-3.977 5.134-5.005 5.861z" fill="url(#paint7_linear_3777_34177)"/><path d="M41.831 21.161c.486 1.115.873 2.26 1.148 3.453a.822.822 0 00.628.621c2.276.484 3.956 1.472 3.94 3.86 1.105-3.256-.326-6.703-5.11-8.582-.396-.156-.777.257-.606.648z" fill="url(#paint8_linear_3777_34177)"/><path d="M62.747 13.181a.656.656 0 00-.606.4c-.885 2.106-4.284 10.189-5.08 12.164a.328.328 0 00.305.448h1.698c.315 0 .61-.166.728-.475 0 0 .27-.665.302-.759.511-1.466 3.718-2.159 5.737-1.999.225.018.376.095.461.308.055.151.985 2.45.985 2.45a.7.7 0 00.66.475H69.7a.33.33 0 00.306-.45c-.797-1.978-4.143-9.927-5.08-12.161a.656.656 0 00-.607-.4h-1.573zm2.297 7.306c-1.447.113-2.736.72-3.567 1.515-.074.07-.193-.011-.155-.107.4-1.004 1.309-3.266 1.988-4.965a.242.242 0 01.45.001c.633 1.591 1.194 2.994 1.367 3.425a.095.095 0 01-.083.13zm15.437.017v5.235c0 .25-.203.454-.453.454h-1.56a.453.453 0 01-.454-.454v-4.71c0-1.31-.716-2.516-1.887-2.462-1.575.072-2.317 1.433-2.317 3.49v3.682c0 .25-.202.454-.452.454h-1.562a.453.453 0 01-.452-.454v-8.702c0-.25.202-.454.453-.454h1.56c.25 0 .453.203.453.454v.659c0 .095.124.133.176.053.608-.919 1.641-1.35 2.758-1.35 2.242 0 3.737 1.784 3.737 4.105zm8.127-1.722a.457.457 0 00.456-.457V17.04a.457.457 0 00-.456-.458h-2.609a.097.097 0 01-.097-.097v-2.848a.457.457 0 00-.456-.457H83.83a.457.457 0 00-.456.457v2.848a.097.097 0 01-.097.097h-1.552a.457.457 0 00-.456.458v1.284c0 .252.204.457.456.457h1.552c.053 0 .097.043.097.097v3.343a3.97 3.97 0 003.966 3.972h1.267a.457.457 0 00.457-.458v-1.561a.457.457 0 00-.456-.457h-1.2a1.5 1.5 0 01-1.493-1.496v-3.342c0-.054.043-.097.097-.097h2.596zm9.344 15.984v1.687c0 .234-.178.43-.41.447-1.654.12-3.564.97-3.564 2.95v3.8c0 .25-.202.453-.452.453h-1.632a.453.453 0 01-.453-.453v-8.704c0-.25.203-.453.453-.453h1.632c.25 0 .452.203.452.453v1.485c0 .1.134.134.18.046.587-1.117 1.858-2.022 3.31-2.16a.447.447 0 01.484.449zm-8.138 5.181h-6.882a.099.099 0 00-.096.118c.29 1.316 1.273 2.114 2.44 2.114.727 0 1.629-.085 2.325-1.083a.452.452 0 01.372-.187h1.673c.208 0 .351.202.283.394-.62 1.752-2.279 3.051-4.652 3.051-2.78 0-4.997-2.06-4.997-5.08 0-3.023 2.216-5.1 5.036-5.1 3.326 0 4.965 2.64 4.8 5.48a.304.304 0 01-.302.293zm-6.792-1.79h4.49a.099.099 0 00.094-.127c-.365-1.142-1.281-1.644-2.29-1.644-.95 0-2.029.537-2.388 1.644a.099.099 0 00.094.127zm71.766.257v5.235c0 .25-.203.454-.453.454h-1.561a.453.453 0 01-.453-.454v-4.71c0-1.31-.717-2.516-1.887-2.462-1.576.072-2.317 1.433-2.317 3.49v3.682c0 .25-.203.454-.453.454h-1.561a.453.453 0 01-.453-.454v-8.702c0-.25.203-.454.453-.454h1.561c.25 0 .453.203.453.454v.659c0 .095.123.133.176.053.608-.919 1.641-1.35 2.757-1.35 2.243 0 3.738 1.784 3.738 4.105zm11.024 5.689h-1.556a.453.453 0 01-.453-.453v-.79c0-.094-.123-.13-.171-.05-.606 1.007-1.68 1.545-2.929 1.545-2.386 0-4.603-1.984-4.603-4.938 0-2.954 2.217-4.986 4.603-4.986 1.148 0 2.341.38 2.926 1.417.047.083.174.049.174-.047v-.855c0-.25.203-.453.453-.453h1.556c.25 0 .453.203.453.453v8.704c0 .25-.203.453-.453.453zm-2.009-4.686c0-1.731-1.334-2.823-2.668-2.823-1.503 0-2.63 1.092-2.63 2.823 0 1.731 1.127 2.804 2.63 2.804 1.334 0 2.668-1.073 2.668-2.804zm-44.377 4.685h-1.556a.452.452 0 01-.452-.453v-.79c0-.094-.124-.13-.172-.05-.606 1.007-1.68 1.545-2.929 1.545-2.386 0-4.603-1.984-4.603-4.938 0-2.954 2.217-4.986 4.603-4.986 1.148 0 2.341.38 2.926 1.417.047.083.175.049.175-.047v-.854c0-.25.202-.454.452-.454h1.556c.25 0 .453.203.453.454v8.703c0 .25-.203.453-.453.453zm-2.008-4.686c0-1.731-1.335-2.822-2.669-2.822-1.503 0-2.63 1.09-2.63 2.822 0 1.731 1.127 2.804 2.63 2.804 1.334 0 2.669-1.073 2.669-2.804zm14.963 4.687h-1.601a.457.457 0 01-.457-.458v-8.694c0-.253.205-.458.457-.458h1.601c.252 0 .457.205.457.458v8.694a.457.457 0 01-.457.458zm.028-10.613h-1.602a.457.457 0 01-.456-.458v-1.604c0-.253.204-.457.456-.457h1.602c.252 0 .456.204.456.457v1.604a.457.457 0 01-.456.457zm11.93 5.782c0 3.008-2.311 5.02-5.055 5.02-2.799 0-5.11-2.012-5.11-5.02 0-3.008 2.311-5.019 5.11-5.019 2.744 0 5.055 2.011 5.055 5.02zm-2.405 0c0-1.782-1.353-2.854-2.65-2.854-1.352 0-2.705 1.072-2.705 2.854s1.353 2.855 2.705 2.855c1.297 0 2.65-1.074 2.65-2.855zm-71.027-.858v5.235c0 .25-.203.454-.453.454h-1.56a.453.453 0 01-.454-.454v-4.71c0-1.31-.717-2.516-1.887-2.462-1.576.072-2.317 1.433-2.317 3.49v3.682c0 .25-.203.454-.453.454h-1.56a.453.453 0 01-.453-.454v-8.702c0-.25.202-.454.452-.454h1.561c.25 0 .453.203.453.454v.659c0 .095.123.133.176.053.608-.919 1.64-1.35 2.758-1.35 2.242 0 3.737 1.784 3.737 4.105zm8.126-1.722a.457.457 0 00.457-.457V34.95a.457.457 0 00-.457-.457h-2.608a.097.097 0 01-.097-.097v-2.848a.457.457 0 00-.457-.457h-1.615a.457.457 0 00-.456.457v2.848a.097.097 0 01-.097.097H72.15a.457.457 0 00-.457.457v1.285c0 .252.205.457.457.457h1.552c.053 0 .097.043.097.097v3.342a3.97 3.97 0 003.966 3.972h1.267a.457.457 0 00.457-.458v-1.561a.457.457 0 00-.457-.457h-1.198a1.5 1.5 0 01-1.494-1.497v-3.34c0-.055.043-.098.097-.098h2.595zm49.498 0a.457.457 0 00.457-.457V34.95a.457.457 0 00-.457-.457h-2.608a.097.097 0 01-.097-.097v-2.848a.457.457 0 00-.456-.457h-1.616a.457.457 0 00-.456.457v2.848a.097.097 0 01-.097.097h-1.552a.457.457 0 00-.457.457v1.285c0 .252.205.457.457.457h1.552c.053 0 .097.043.097.097v3.342a3.969 3.969 0 003.966 3.972h1.267a.457.457 0 00.457-.458v-1.561a.457.457 0 00-.457-.457h-1.198a1.5 1.5 0 01-1.494-1.497v-3.34c0-.055.043-.098.097-.098h2.595zm42.01 7.409h-1.601a.457.457 0 01-.457-.457V30.987c0-.252.205-.457.457-.457h1.601c.253 0 .457.205.457.457v12.657a.457.457 0 01-.457.457zm-111.445 0h-1.601a.457.457 0 01-.457-.457V31.547c0-.253.205-.457.457-.457h1.601c.252 0 .457.204.457.457v12.097a.457.457 0 01-.457.457zm49.306-5.687v5.235c0 .25-.203.454-.453.454h-1.561a.453.453 0 01-.453-.454v-4.71c0-1.31-.717-2.516-1.887-2.462-1.575.072-2.317 1.433-2.317 3.49v3.682c0 .25-.202.454-.452.454h-1.562a.453.453 0 01-.452-.454v-8.702c0-.25.202-.454.452-.454h1.562c.25 0 .452.203.452.454v.659c0 .095.124.133.176.053.608-.919 1.641-1.35 2.758-1.35 2.242 0 3.737 1.784 3.737 4.105z" fill="#103CC8"/></g><defs><linearGradient id="paint0_linear_3777_34177" x1="57.113" y1="25.498" x2="47.036" y2="33.941" gradientUnits="userSpaceOnUse"><stop stop-color="#06F"/><stop offset=".13" stop-color="#056CFF"/><stop offset=".3" stop-color="#147FFF"/><stop offset=".51" stop-color="#2D9EFF"/><stop offset=".75" stop-color="#50C9FF"/><stop offset="1" stop-color="#7DFFFF"/></linearGradient><linearGradient id="paint1_linear_3777_34177" x1="34.673" y1="-4.819" x2="22.398" y2="16.41" gradientUnits="userSpaceOnUse"><stop stop-color="#06F"/><stop offset=".15" stop-color="#046AFF"/><stop offset=".313" stop-color="#0E78FF"/><stop offset=".483" stop-color="#208DFF"/><stop offset=".657" stop-color="#39ACFF"/><stop offset=".833" stop-color="#59D3FF"/><stop offset="1" stop-color="#7DFFFF"/></linearGradient><linearGradient id="paint2_linear_3777_34177" x1="7.334" y1="40.421" x2="39.395" y2="18.004" gradientUnits="userSpaceOnUse"><stop offset=".2" stop-color="#06F"/><stop offset=".299" stop-color="#056CFF"/><stop offset=".426" stop-color="#127CFF"/><stop offset=".569" stop-color="#2796FF"/><stop offset=".722" stop-color="#45BBFF"/><stop offset=".883" stop-color="#6BE9FF"/><stop offset=".95" stop-color="#7DFFFF"/></linearGradient><linearGradient id="paint3_linear_3777_34177" x1="12.545" y1=".349" x2="12.545" y2="21.879" gradientUnits="userSpaceOnUse"><stop stop-color="#06F"/><stop offset=".15" stop-color="#046AFF"/><stop offset=".313" stop-color="#0E78FF"/><stop offset=".483" stop-color="#208DFF"/><stop offset=".657" stop-color="#39ACFF"/><stop offset=".833" stop-color="#59D3FF"/><stop offset="1" stop-color="#7DFFFF"/></linearGradient><linearGradient id="paint4_linear_3777_34177" x1="-.327" y1="36.643" x2="28.398" y2="25.055" gradientUnits="userSpaceOnUse"><stop stop-color="#0076FA"/><stop offset=".274" stop-color="#0076FA"/><stop offset="1" stop-color="#0086FA"/></linearGradient><linearGradient id="paint5_linear_3777_34177" x1="-3.462" y1="39.221" x2="24.074" y2="23.413" gradientUnits="userSpaceOnUse"><stop offset=".1" stop-color="#06F"/><stop offset=".212" stop-color="#086FFF"/><stop offset=".398" stop-color="#1C89FF"/><stop offset=".635" stop-color="#3EB2FF"/><stop offset=".912" stop-color="#6DEBFF"/><stop offset="1" stop-color="#7DFFFF"/></linearGradient><linearGradient id="paint6_linear_3777_34177" x1=".314" y1="38.714" x2="10.782" y2="44.749" gradientUnits="userSpaceOnUse"><stop stop-color="#06F"/><stop offset=".202" stop-color="#1580FF"/><stop offset=".631" stop-color="#4BC2FF"/><stop offset="1" stop-color="#7DFFFF"/></linearGradient><linearGradient id="paint7_linear_3777_34177" x1="51.169" y1="25.617" x2="39.076" y2="35.748" gradientUnits="userSpaceOnUse"><stop stop-color="#06F"/><stop offset=".125" stop-color="#056DFF"/><stop offset=".304" stop-color="#157FFF"/><stop offset=".514" stop-color="#2E9EFF"/><stop offset=".749" stop-color="#51C9FF"/><stop offset="1" stop-color="#7DFFFF"/></linearGradient><linearGradient id="paint8_linear_3777_34177" x1="39.981" y1="19.238" x2="49.176" y2="28.42" gradientUnits="userSpaceOnUse"><stop stop-color="#06F"/><stop offset=".15" stop-color="#046AFF"/><stop offset=".313" stop-color="#0E78FF"/><stop offset=".483" stop-color="#208DFF"/><stop offset=".657" stop-color="#39ACFF"/><stop offset=".833" stop-color="#59D3FF"/><stop offset="1" stop-color="#7DFFFF"/></linearGradient><clipPath id="clip0_3777_34177"><path fill="#fff" d="M0 0h171v48H0z"/></clipPath></defs></svg>